<svg width="1000" height="1000" viewBox="0 0 1000 1000" fill="none" xmlns="http://www.w3.org/2000/svg">
<g clip-path="url(#clip0_28_44)">
<path d="M917 160.5C770.789 81.1682 640.788 48.0978 474.5 52.5C308.212 56.9021 164.431 100.182 22.622 187.139L49.7646 230.5L487 929L564.5 929L917 253.5L917 160.5Z" fill="black"/>
<path d="M796.603 183.488C690.873 127.273 572.703 100.747 453.97 106.575C335.237 112.403 220.126 150.38 120.205 216.689L487.069 804.569L796.603 183.488Z" fill="#EB3321"/>
<path d="M797.707 184.273C692 126.5 573.733 99.672 455 105.5C336.267 111.328 218.92 151.191 119 217.5L194 335C194 335 247.313 232.243 457.627 224.798C667.941 217.354 739.5 299 739.5 299L797.707 184.273Z" fill="#E1C16F"/>
<path d="M383.394 351.075C298.101 416.672 251.938 407.232 234.5 400L487 804.5L707 363C671.707 379.962 630.689 379.514 585.485 346.682C528.98 305.642 490.01 269.079 383.394 351.075Z" fill="#FFC800" fill-opacity="0.5"/>
<circle cx="341.5" cy="390.5" r="70.5" fill="#AD0909"/>
<circle cx="557.5" cy="460.5" r="70.5" fill="#AD0909"/>
</g>
<defs>
<clipPath id="clip0_28_44">
<rect width="1000" height="1000" fill="white"/>
</clipPath>
</defs>
</svg>
